<svg width="24" height="24" viewBox="0 0 24 24" fill="none" xmlns="http://www.w3.org/2000/svg">
    <path d="M22.675 0H1.325C0.59375 0 0 0.59375 0 1.325V22.675C0 23.4062 0.59375 24 1.325 24H12.819V14.706H9.692V11.084H12.819V8.41047C12.819 5.31992 14.7399 3.60001 17.4762 3.60001C18.7916 3.60001 19.9272 3.69844 20.2541 3.74141V7.02891L18.2563 7.02992C16.7016 7.02992 16.375 7.74492 16.375 8.82657V11.084H20.0953L19.5728 14.706H16.375V24H22.675C23.4062 24 24 23.4062 24 22.675V1.325C24 0.59375 23.4062 0 22.675 0Z" fill="#EAEDFF"/>
</svg>
