<svg width="24" height="24" viewBox="0 0 24 24" fill="none" xmlns="http://www.w3.org/2000/svg">
    <path d="M23.4997 6.80772C23.4997 6.80772 23.2655 5.12668 22.4923 4.34706C21.5683 3.39492 20.5325 3.3903 19.9992 3.32194C16.7936 3.08356 12.0025 3.08356 12.0025 3.08356H11.9975C11.9975 3.08356 7.20642 3.08356 4.0008 3.32194C3.46751 3.3903 2.43167 3.39492 1.50768 4.34706C0.734487 5.12668 0.500257 6.80772 0.500257 6.80772C0.500257 6.80772 0.25 8.67398 0.25 10.5402V13.4598C0.25 15.326 0.500257 17.1923 0.500257 17.1923C0.500257 17.1923 0.734487 18.8733 1.50768 19.6529C2.43167 20.6051 3.73185 20.5725 4.37552 20.678C6.12528 20.8379 12 20.9164 12 20.9164C12 20.9164 16.7936 20.9107 19.9992 20.678C20.5325 20.6096 21.5683 20.6051 22.4923 19.6529C23.2655 18.8733 23.4997 17.1923 23.4997 17.1923C23.4997 17.1923 23.75 15.326 23.75 13.4598V10.5402C23.75 8.67398 23.4997 6.80772 23.4997 6.80772ZM9.75123 15.1673V8.83269L15.8196 12L9.75123 15.1673Z" fill="#EAEDFF"/>
</svg>
