<svg width="28" height="22" viewBox="0 0 28 22" fill="none" xmlns="http://www.w3.org/2000/svg">
<path d="M24.3125 9.51758C23.7215 9.25807 23.083 9.12437 22.4375 9.125H5.5625C4.91709 9.12436 4.2786 9.25785 3.6875 9.51699C2.85207 9.88233 2.14117 10.4831 1.6417 11.246C1.14222 12.0088 0.875798 12.9007 0.875 13.8125V20.375C0.875 20.6236 0.973772 20.8621 1.14959 21.0379C1.3254 21.2137 1.56386 21.3125 1.8125 21.3125C2.06114 21.3125 2.2996 21.2137 2.47541 21.0379C2.65123 20.8621 2.75 20.6236 2.75 20.375V19.9062C2.75152 19.7824 2.80139 19.6641 2.88897 19.5765C2.97655 19.4889 3.0949 19.439 3.21875 19.4375H24.7812C24.9051 19.439 25.0234 19.4889 25.111 19.5765C25.1986 19.6641 25.2485 19.7824 25.25 19.9062V20.375C25.25 20.6236 25.3488 20.8621 25.5246 21.0379C25.7004 21.2137 25.9389 21.3125 26.1875 21.3125C26.4361 21.3125 26.6746 21.2137 26.8504 21.0379C27.0262 20.8621 27.125 20.6236 27.125 20.375V13.8125C27.1241 12.9008 26.8576 12.0091 26.3581 11.2463C25.8587 10.4836 25.1478 9.88288 24.3125 9.51758ZM21.0312 0.6875H6.96875C6.09851 0.6875 5.26391 1.0332 4.64856 1.64856C4.0332 2.26391 3.6875 3.09851 3.6875 3.96875V8.1875C3.68753 8.22382 3.69599 8.25964 3.71223 8.29212C3.72847 8.32461 3.75204 8.35288 3.78107 8.3747C3.81011 8.39652 3.84382 8.41129 3.87954 8.41785C3.91526 8.42441 3.95202 8.42258 3.98691 8.4125C4.49871 8.26281 5.02927 8.18705 5.5625 8.1875H5.81035C5.8682 8.18787 5.92414 8.16683 5.96741 8.12842C6.01068 8.09002 6.03822 8.03698 6.04473 7.97949C6.09586 7.5214 6.31394 7.0982 6.65732 6.7907C7.0007 6.48321 7.44531 6.31297 7.90625 6.3125H11.1875C11.6487 6.31254 12.0938 6.48258 12.4375 6.79011C12.7813 7.09765 12.9996 7.5211 13.0508 7.97949C13.0573 8.03698 13.0848 8.09002 13.1281 8.12842C13.1714 8.16683 13.2273 8.18787 13.2852 8.1875H14.7184C14.7762 8.18787 14.8322 8.16683 14.8754 8.12842C14.9187 8.09002 14.9462 8.03698 14.9527 7.97949C15.0038 7.5217 15.2217 7.09874 15.5647 6.79129C15.9077 6.48383 16.3519 6.3134 16.8125 6.3125H20.0938C20.555 6.31254 21 6.48258 21.3438 6.79011C21.6875 7.09765 21.9059 7.5211 21.957 7.97949C21.9635 8.03698 21.9911 8.09002 22.0343 8.12842C22.0776 8.16683 22.1336 8.18787 22.1914 8.1875H22.4375C22.9708 8.18724 23.5013 8.2632 24.0131 8.41309C24.048 8.42318 24.0848 8.425 24.1206 8.41841C24.1564 8.41182 24.1901 8.39699 24.2192 8.37511C24.2482 8.35322 24.2718 8.32488 24.288 8.29232C24.3042 8.25975 24.3126 8.22387 24.3125 8.1875V3.96875C24.3125 3.09851 23.9668 2.26391 23.3514 1.64856C22.7361 1.0332 21.9015 0.6875 21.0312 0.6875Z" fill="#FFFBD5"/>
</svg>
