<svg width="30" height="30" viewBox="0 0 30 30" fill="none" xmlns="http://www.w3.org/2000/svg">
<path d="M25 17.5V15H5V17.5C5 18.9225 5.72875 21.56 8.43125 22.3012C8.89375 22.4287 9.415 22.5 10 22.5H20C20.5295 22.5047 21.0572 22.4379 21.5687 22.3012C24.2712 21.56 25 18.9225 25 17.5Z" fill="#FFFBD5"/>
<path d="M3.75 15H5M5 15H25M5 15V17.5C5 18.9225 5.72875 21.56 8.43125 22.3012M25 15C25.3315 15 25.6495 14.8683 25.8839 14.6339C26.1183 14.3995 26.25 14.0815 26.25 13.75V8.75C26.25 7.5 25.5 5 22.5 5C19.5 5 18.75 7.5 18.75 8.75M25 15V17.5C25 18.9225 24.2712 21.56 21.5687 22.3012M18.75 8.75H16.25M18.75 8.75H21.25M21.5687 22.3012C21.0572 22.4379 20.5295 22.5047 20 22.5H10C9.415 22.5 8.89375 22.4287 8.43125 22.3012M21.5687 22.3012L22.5 25M8.43125 22.3012L7.5 25" stroke="#FFFBD5" stroke-width="2" stroke-linecap="round" stroke-linejoin="round"/>
</svg>
