<svg width="30" height="30" viewBox="0 0 30 30" fill="none" xmlns="http://www.w3.org/2000/svg">
<path d="M15.0063 16.2537C15.7542 16.2537 16.485 16.4773 17.1049 16.8958C17.7247 17.3142 18.2053 17.9085 18.4848 18.6022C18.7643 19.2959 18.83 20.0573 18.6735 20.7886C18.5169 21.5199 18.1453 22.1877 17.6063 22.7062L15.2188 25.0025H18.7563V27.5025H11.2563L11.2551 25.3475L15.8726 20.9037C16.0216 20.7605 16.1327 20.5826 16.1961 20.3859C16.2595 20.1892 16.2731 19.9799 16.2358 19.7766C16.1984 19.5733 16.1112 19.3825 15.9821 19.2212C15.8529 19.0599 15.6857 18.9331 15.4955 18.8523C15.3054 18.7714 15.0981 18.7389 14.8923 18.7578C14.6865 18.7766 14.4886 18.8462 14.3163 18.9603C14.144 19.0744 14.0026 19.2294 13.9049 19.4115C13.8072 19.5936 13.7562 19.7971 13.7563 20.0037H11.2563C11.2563 19.0092 11.6514 18.0553 12.3547 17.3521C13.058 16.6488 14.0118 16.2537 15.0063 16.2537ZM22.5063 16.2537V21.2537H25.0063V16.2537H27.5063V27.5037H25.0063V23.7537H20.0063V16.2537H22.5063ZM5.00635 15.0037C5.00526 16.5031 5.34179 17.9835 5.99096 19.3351C6.64014 20.6867 7.58531 21.8748 8.75635 22.8112V25.8312C6.85579 24.7339 5.27761 23.1556 4.18048 21.255C3.08336 19.3543 2.50596 17.1983 2.50635 15.0037H5.00635ZM15.0063 2.50373C21.4876 2.50373 26.8176 7.43623 27.4438 13.7537H24.9288C24.6853 11.8225 23.8835 10.0044 22.6218 8.52217C21.36 7.03998 19.6932 5.9582 17.8256 5.40947C15.9581 4.86073 13.971 4.8689 12.108 5.43296C10.245 5.99703 8.58712 7.09247 7.3376 8.58498L10.0063 11.2537H2.50635V3.75373L5.5626 6.81123C6.73509 5.45755 8.1853 4.37218 9.81463 3.62891C11.444 2.88564 13.2142 2.50188 15.0051 2.50373" fill="#FFFBD5"/>
</svg>
