<svg width="30" height="30" viewBox="0 0 30 30" fill="none" xmlns="http://www.w3.org/2000/svg">
<path d="M7.5 2.5C6.125 2.5 5 3.625 5 5V25C5 26.375 6.125 27.5 7.5 27.5H12.5V25.125L25 12.625V10L17.5 2.5H7.5ZM16.25 4.375L23.125 11.25H16.25V4.375ZM25.125 16.25C25 16.25 24.75 16.375 24.625 16.5L23.375 17.75L26 20.375L27.25 19.125C27.5 18.875 27.5 18.375 27.25 18.125L25.625 16.5C25.5 16.375 25.375 16.25 25.125 16.25ZM22.625 18.5L15 26.125V28.75H17.625L25.25 21.125L22.625 18.5Z" fill="#FFFBD5"/>
</svg>
