<svg width="52" height="52" viewBox="0 0 30 30" fill="none" xmlns="http://www.w3.org/2000/svg">
<path d="M25.5 24C25.5 25.5913 24.8679 27.1174 23.7427 28.2426C22.6174 29.3679 21.0913 30 19.5 30H10.5C9.71082 30 8.92938 29.8443 8.20045 29.5418C7.47151 29.2394 6.80941 28.7961 6.25207 28.2373C5.69472 27.6786 5.25307 27.0154 4.95243 26.2857C4.65178 25.556 4.49805 24.7742 4.50002 23.985V6C4.50002 5.60218 4.65805 5.22064 4.93936 4.93934C5.22066 4.65804 5.60219 4.5 6.00002 4.5C6.39784 4.5 6.77937 4.65804 7.06068 4.93934C7.34198 5.22064 7.50002 5.60218 7.50002 6V15H9.00002V3C9.00002 2.60218 9.15805 2.22064 9.43936 1.93934C9.72066 1.65804 10.1022 1.5 10.5 1.5C10.8978 1.5 11.2794 1.65804 11.5607 1.93934C11.842 2.22064 12 2.60218 12 3V15H13.5V1.5C13.5 1.10218 13.6581 0.720644 13.9394 0.43934C14.2207 0.158035 14.6022 0 15 0C15.3978 0 15.7794 0.158035 16.0607 0.43934C16.342 0.720644 16.5 1.10218 16.5 1.5V15H18V3C18 2.60218 18.1581 2.22064 18.4394 1.93934C18.7207 1.65804 19.1022 1.5 19.5 1.5C19.8978 1.5 20.2794 1.65804 20.5607 1.93934C20.842 2.22064 21 2.60218 21 3V22.5H22.5V13.5C22.5 13.1022 22.6581 12.7206 22.9394 12.4393C23.2207 12.158 23.6022 12 24 12H25.5V24Z" fill="#FFFBD5"/>
</svg>
