<svg width="28" height="30" viewBox="0 0 28 30" fill="none" xmlns="http://www.w3.org/2000/svg">
<path d="M19.5625 2.8125C19.5625 2.31522 19.76 1.83831 20.1117 1.48667C20.4633 1.13504 20.9402 0.9375 21.4375 0.9375H25.1875C25.6848 0.9375 26.1617 1.13504 26.5133 1.48667C26.865 1.83831 27.0625 2.31522 27.0625 2.8125V8.4375C27.0625 8.93478 26.865 9.41169 26.5133 9.76332C26.1617 10.115 25.6848 10.3125 25.1875 10.3125H24.25V28.125C24.25 28.3736 24.1512 28.6121 23.9754 28.7879C23.7996 28.9637 23.5611 29.0625 23.3125 29.0625C23.0639 29.0625 22.8254 28.9637 22.6496 28.7879C22.4738 28.6121 22.375 28.3736 22.375 28.125V10.3125H21.4375C20.9402 10.3125 20.4633 10.115 20.1117 9.76332C19.76 9.41169 19.5625 8.93478 19.5625 8.4375V2.8125ZM18.1562 2.8125H7.75656C6.90334 2.81243 6.0756 3.10333 5.41001 3.63717C4.74442 4.171 4.28077 4.91586 4.09562 5.74875L3.4975 8.4375H2.6875C2.43886 8.4375 2.2004 8.53627 2.02459 8.71209C1.84877 8.8879 1.75 9.12636 1.75 9.375C1.75 9.62364 1.84877 9.8621 2.02459 10.0379C2.2004 10.2137 2.43886 10.3125 2.6875 10.3125H3.08125L2.77188 11.7047C2.17902 12.0269 1.68409 12.5031 1.33924 13.083C0.994395 13.663 0.81242 14.3253 0.8125 15V24.375C0.8125 25.1209 1.10882 25.8363 1.63626 26.3637C2.16371 26.8912 2.87908 27.1875 3.625 27.1875H4.5625C5.30842 27.1875 6.02379 26.8912 6.55124 26.3637C7.07868 25.8363 7.375 25.1209 7.375 24.375V23.4375H18.625V24.375C18.6248 25.0398 18.8601 25.6832 19.2891 26.191C19.7182 26.6988 20.3132 27.0383 20.9688 27.1491V25.1869C20.8262 25.1046 20.7079 24.9862 20.6256 24.8437C20.5433 24.7012 20.5 24.5396 20.5 24.375V23.4375H20.9688V11.6859C20.5363 11.6235 20.1207 11.4753 19.7462 11.25H4.79312L5.92563 6.15562C6.01818 5.73926 6.24994 5.36689 6.58263 5.09998C6.91533 4.83307 7.32909 4.68757 7.75563 4.6875H18.1562V2.8125ZM2.6875 24.375V23.4375H5.5V24.375C5.5 24.6236 5.40123 24.8621 5.22541 25.0379C5.0496 25.2137 4.81114 25.3125 4.5625 25.3125H3.625C3.37636 25.3125 3.1379 25.2137 2.96209 25.0379C2.78627 24.8621 2.6875 24.6236 2.6875 24.375ZM10.6562 19.6875C10.4076 19.6875 10.1692 19.5887 9.99334 19.4129C9.81752 19.2371 9.71875 18.9986 9.71875 18.75C9.71875 18.5014 9.81752 18.2629 9.99334 18.0871C10.1692 17.9113 10.4076 17.8125 10.6562 17.8125H15.3438C15.5924 17.8125 15.8308 17.9113 16.0067 18.0871C16.1825 18.2629 16.2812 18.5014 16.2812 18.75C16.2812 18.9986 16.1825 19.2371 16.0067 19.4129C15.8308 19.5887 15.5924 19.6875 15.3438 19.6875H10.6562ZM8.3125 16.4062C8.3125 16.7792 8.16434 17.1369 7.90062 17.4006C7.6369 17.6643 7.27921 17.8125 6.90625 17.8125C6.53329 17.8125 6.1756 17.6643 5.91188 17.4006C5.64816 17.1369 5.5 16.7792 5.5 16.4062C5.5 16.0333 5.64816 15.6756 5.91188 15.4119C6.1756 15.1482 6.53329 15 6.90625 15C7.27921 15 7.6369 15.1482 7.90062 15.4119C8.16434 15.6756 8.3125 16.0333 8.3125 16.4062ZM19.0938 15C19.4667 15 19.8244 15.1482 20.0881 15.4119C20.3518 15.6756 20.5 16.0333 20.5 16.4062C20.5 16.7792 20.3518 17.1369 20.0881 17.4006C19.8244 17.6643 19.4667 17.8125 19.0938 17.8125C18.7208 17.8125 18.3631 17.6643 18.0994 17.4006C17.8357 17.1369 17.6875 16.7792 17.6875 16.4062C17.6875 16.0333 17.8357 15.6756 18.0994 15.4119C18.3631 15.1482 18.7208 15 19.0938 15Z" fill="#FFFBD5"/>
</svg>
