<svg width="38" height="38" viewBox="0 0 27 30" fill="none" xmlns="http://www.w3.org/2000/svg">
<path d="M8.4375 0C6.88477 0 5.625 1.25977 5.625 2.8125V10.3125C5.625 10.8281 5.20313 11.25 4.6875 11.25C4.17187 11.25 3.75 10.8281 3.75 10.3125V8.74805L3.22266 9.1875C2.36719 9.90234 1.875 10.957 1.875 12.0703V14.2969C1.875 16.5234 2.86523 18.6328 4.57617 20.0566L7.5 22.5V28.125C7.5 29.1621 8.33789 30 9.375 30H18.75C19.7871 30 20.625 29.1621 20.625 28.125V21.9551C23.373 20.8418 25.3125 18.1465 25.3125 15V8.4375C25.3125 6.88477 24.0527 5.625 22.5 5.625C21.7734 5.625 21.1172 5.90039 20.6191 6.3457C20.5078 4.89258 19.2949 3.75 17.8125 3.75C17.0859 3.75 16.4297 4.02539 15.9316 4.4707C15.8203 3.01758 14.6074 1.875 13.125 1.875C12.3984 1.875 11.7422 2.15039 11.2441 2.5957C11.1328 1.14258 9.91992 0 8.4375 0Z" fill="#FFFBD5"/>
</svg>
