<svg width="30" height="30" viewBox="0 0 30 30" fill="none" xmlns="http://www.w3.org/2000/svg">
<path d="M15.0925 10.4082C17.4643 10.4082 19.3789 8.47799 19.3789 6.09839C19.3789 3.72359 17.4649 1.79999 15.0925 1.79999C12.7237 1.79999 10.8007 3.72419 10.8007 6.09839C10.8007 8.47739 12.7243 10.4082 15.0925 10.4082ZM19.2631 11.4C21.2257 11.4 22.0495 13.0764 22.0495 13.0764L28.3837 21.8034C28.6459 22.1928 28.8001 22.6692 28.8001 23.1834C28.8001 24.5394 27.7033 25.6416 26.3515 25.6416C26.0393 25.6395 25.7303 25.5795 25.4401 25.4646L21.6001 24.4002V28.2H8.40008V24.4002L4.55888 25.4664C4.28888 25.572 3.97808 25.644 3.65348 25.644C3.003 25.6432 2.3794 25.3844 1.91955 24.9243C1.45969 24.4642 1.20116 23.8405 1.20068 23.19C1.20068 22.6764 1.35248 22.2078 1.62428 21.8172L7.95428 13.0764C7.95428 13.0764 8.77748 11.4 10.7317 11.4H19.2631ZM15.0037 25.5528L19.9513 23.9088L19.8439 23.8788C16.4209 22.8756 17.7331 18.342 21.1477 19.3566L21.6001 19.5174V14.4048L15.0067 16.5786L8.40008 14.4048V19.5174L8.85248 19.356C12.2653 18.342 13.5913 22.875 10.1707 23.8782L10.0507 23.9082L15.0037 25.5528Z" fill="#FFFBD5"/>
</svg>
