<svg width="30" height="30" viewBox="0 0 30 30" fill="none" xmlns="http://www.w3.org/2000/svg">
<path d="M8.75004 15V16.25H21.25V15C21.25 14.007 21.6439 13.0544 22.3453 12.3514C23.0467 11.6484 23.9982 11.2523 24.9913 11.25C24.9899 10.9231 24.9606 10.5969 24.9038 10.275C24.7109 9.30501 24.2347 8.41401 23.5354 7.71469C22.836 7.01537 21.945 6.53915 20.975 6.34625C20.4925 6.25 19.9125 6.25 18.75 6.25H11.25C10.0875 6.25 9.50754 6.25 9.02504 6.34625C8.05505 6.53915 7.16405 7.01537 6.46473 7.71469C5.76541 8.41401 5.28919 9.30501 5.09629 10.275C5.03946 10.5969 5.01019 10.9231 5.00879 11.25C6.00183 11.2523 6.95341 11.6484 7.65478 12.3514C8.35615 13.0544 8.75004 14.007 8.75004 15Z" fill="#FFFBD5"/>
<path d="M23.055 22.5H6.945C6.60591 22.4997 6.26793 22.4612 5.9375 22.385V23.75C5.9375 23.9986 5.83873 24.2371 5.66291 24.4129C5.4871 24.5887 5.24864 24.6875 5 24.6875C4.75136 24.6875 4.5129 24.5887 4.33709 24.4129C4.16127 24.2371 4.0625 23.9986 4.0625 23.75V21.4387C3.57226 21.0218 3.17859 20.5032 2.90878 19.9189C2.63897 19.3346 2.49949 18.6986 2.5 18.055V15C2.5 14.337 2.76339 13.7011 3.23223 13.2322C3.70108 12.7634 4.33696 12.5 5 12.5C5.66304 12.5 6.29893 12.7634 6.76777 13.2322C7.23661 13.7011 7.5 14.337 7.5 15V16.5C7.5 16.7652 7.60536 17.0196 7.79289 17.2071C7.98043 17.3946 8.23478 17.5 8.5 17.5H21.5C21.7652 17.5 22.0196 17.3946 22.2071 17.2071C22.3946 17.0196 22.5 16.7652 22.5 16.5V15C22.5 14.337 22.7634 13.7011 23.2322 13.2322C23.7011 12.7634 24.337 12.5 25 12.5C25.663 12.5 26.2989 12.7634 26.7678 13.2322C27.2366 13.7011 27.5 14.337 27.5 15V18.055C27.5005 18.6986 27.361 19.3346 27.0912 19.9189C26.8214 20.5032 26.4277 21.0218 25.9375 21.4387V23.75C25.9375 23.9986 25.8387 24.2371 25.6629 24.4129C25.4871 24.5887 25.2486 24.6875 25 24.6875C24.7514 24.6875 24.5129 24.5887 24.3371 24.4129C24.1613 24.2371 24.0625 23.9986 24.0625 23.75V22.385C23.7321 22.4612 23.3941 22.4997 23.055 22.5Z" fill="#FFFBD5"/>
</svg>
