<svg width="30" height="30" viewBox="0 0 24 24" fill="none" xmlns="http://www.w3.org/2000/svg">
<g clip-path="url(#clip0_130_5888)">
<path fill-rule="evenodd" clip-rule="evenodd" d="M2.82723 0.766842C3.08969 0.504775 3.40485 0.30148 3.75183 0.170427C4.0988 0.0393749 4.46966 -0.0164416 4.83984 0.00667674C5.21002 0.0297951 5.57105 0.13132 5.89902 0.304524C6.227 0.477729 6.51441 0.718657 6.74223 1.01134L9.43473 4.47034C9.92823 5.10484 10.1022 5.93134 9.90723 6.71134L9.08673 9.99634C9.04461 10.1665 9.04704 10.3446 9.09381 10.5136C9.14058 10.6825 9.2301 10.8366 9.35373 10.9608L13.0392 14.6463C13.1637 14.7702 13.3179 14.8599 13.4872 14.9067C13.6564 14.9534 13.8348 14.9557 14.0052 14.9133L17.2887 14.0928C17.6737 13.9972 18.0753 13.99 18.4635 14.0718C18.8516 14.1536 19.2162 14.3224 19.5297 14.5653L22.9887 17.2563C24.2322 18.2238 24.3462 20.0613 23.2332 21.1728L21.6822 22.7238C20.5722 23.8338 18.9132 24.3213 17.3667 23.7768C13.4077 22.3857 9.81354 20.1195 6.85173 17.1468C3.87929 14.1855 1.61306 10.5918 0.22173 6.63334C-0.32127 5.08834 0.16623 3.42784 1.27623 2.31784L2.82723 0.766842Z" fill="#FFFBD5"/>
</g>
<defs>
<clipPath id="clip0_130_5888">
<rect width="24" height="24" fill="white"/>
</clipPath>
</defs>
</svg>
