<svg width="30" height="30" viewBox="0 0 26 26" fill="none" xmlns="http://www.w3.org/2000/svg">
<path d="M13.0015 0.833374C19.9052 0.833374 25.5015 6.42962 25.5015 13.3334C25.5015 20.2371 19.9052 25.8334 13.0015 25.8334C10.7924 25.8372 8.62221 25.2526 6.71398 24.1396L0.506484 25.8334L2.19648 19.6234C1.08268 17.7145 0.497613 15.5434 0.501484 13.3334C0.501484 6.42962 6.09774 0.833374 13.0015 0.833374ZM8.74148 7.45837L8.49148 7.46837C8.32985 7.47951 8.17192 7.52197 8.02648 7.59337C7.89095 7.67026 7.76719 7.76625 7.65898 7.87837C7.50898 8.01962 7.42398 8.14212 7.33273 8.26087C6.87039 8.862 6.62145 9.60002 6.62523 10.3584C6.62773 10.9709 6.78773 11.5671 7.03773 12.1246C7.54898 13.2521 8.39023 14.4459 9.50023 15.5521C9.76773 15.8184 10.0302 16.0859 10.3127 16.3346C11.692 17.5489 13.3356 18.4246 15.1127 18.8921L15.8227 19.0009C16.054 19.0134 16.2852 18.9959 16.5177 18.9846C16.8817 18.9654 17.2371 18.8669 17.559 18.6959C17.7225 18.6113 17.8823 18.5195 18.0377 18.4209C18.0377 18.4209 18.0907 18.385 18.194 18.3084C18.3627 18.1834 18.4665 18.0946 18.6065 17.9484C18.7115 17.84 18.799 17.7142 18.869 17.5709C18.9665 17.3671 19.064 16.9784 19.104 16.6546C19.134 16.4071 19.1252 16.2721 19.1215 16.1884C19.1165 16.0546 19.0052 15.9159 18.884 15.8571L18.1565 15.5309C18.1565 15.5309 17.069 15.0571 16.404 14.7546C16.3344 14.7243 16.2598 14.707 16.184 14.7034C16.0985 14.6944 16.012 14.704 15.9305 14.7314C15.8489 14.7588 15.7743 14.8033 15.7115 14.8621C15.7052 14.8596 15.6215 14.9309 14.7177 16.0259C14.6659 16.0956 14.5944 16.1483 14.5125 16.1772C14.4306 16.2061 14.3419 16.21 14.2577 16.1884C14.1763 16.1667 14.0965 16.1391 14.019 16.1059C13.864 16.0409 13.8102 16.0159 13.704 15.9709C12.9863 15.6583 12.322 15.2352 11.7352 14.7171C11.5777 14.5796 11.4315 14.4296 11.2815 14.2846C10.7897 13.8136 10.3612 13.2809 10.0065 12.6996L9.93273 12.5809C9.88056 12.5006 9.83778 12.4146 9.80523 12.3246C9.75773 12.1409 9.88148 11.9934 9.88148 11.9934C9.88148 11.9934 10.1852 11.6609 10.3265 11.4809C10.464 11.3059 10.5802 11.1359 10.6552 11.0146C10.8027 10.7771 10.849 10.5334 10.7715 10.3446C10.4215 9.48962 10.0598 8.63921 9.68648 7.79337C9.61273 7.62587 9.39398 7.50587 9.19523 7.48212C9.12773 7.47379 9.06023 7.46712 8.99273 7.46212C8.82489 7.4525 8.6566 7.45417 8.48898 7.46712L8.74148 7.45837Z" fill="#FFFBD5"/>
</svg>
